<svg class=" " width="24" height="24" viewBox="0 0 24 24" fill="red" xmlns="http://www.w3.org/2000/svg" aria-hidden="true"><path d="M18.0002 7H15.7502V5.75C15.7502 4.79 14.9702 4 14.0002 4H9.99023C9.03023 4 8.24023 
						4.78 8.24023 5.75V7H5.99023C4.89023 7 3.99023 7.89 3.99023 9V18C3.99023 19.1 4.88023 20 
						5.99023 20H17.9902C19.0902 20 19.9902 19.11 19.9902 18V9C19.9902 7.9 19.1002 7 17.9902 
						7H18.0002ZM9.75023 5.75C9.75023 5.61 9.86023 5.5 10.0002 5.5H14.0102C14.1502 5.5 14.2602 
						5.61 14.2602 5.75V7H9.76023V5.75H9.75023ZM18.5002 18.01C18.5002 18.28 18.2802 18.51 18.0002 
						18.51H6.00023C5.73023 18.51 5.50023 18.29 5.50023 18.01V9.01C5.50023 8.74 5.72023 8.51 6.00023 
						8.51H8.25023V10.01H9.75023V8.51H14.2502V10.01H15.7502V8.51H18.0002C18.2702 8.51 18.5002 8.73 
						18.5002 9.01V18.01Z" fill="var(--_g-icon-fill-color)"></path></svg>